<svg width="49" height="49" viewBox="0 0 49 49" fill="none" xmlns="http://www.w3.org/2000/svg">
<path d="M0.299194 17.8382C0.299194 11.8853 0.299189 8.82382 1.48977 6.44265C2.51027 4.40166 4.21111 2.70082 6.2521 1.68032C8.63327 0.489741 11.5247 0.489746 17.6477 0.489746H30.7441C36.697 0.489746 39.7585 0.489741 42.1396 1.68032C44.1806 2.70082 45.8815 4.40166 46.9019 6.44265C48.0925 8.82382 48.0926 11.7152 48.0926 17.8382V30.9346C48.0926 36.8875 48.0925 39.949 46.9019 42.3302C45.8815 44.3712 44.1806 46.072 42.1396 47.0925C39.7585 48.2831 36.867 48.2831 30.7441 48.2831H17.6477C11.6948 48.2831 8.63327 48.2831 6.2521 47.0925C4.21111 46.072 2.51027 44.3712 1.48977 42.3302C0.299189 39.949 0.299194 37.0576 0.299194 30.9346V17.8382Z" fill="#00005B"/>
<path d="M18.6682 29.4039H11.1845L9.65376 34.3363C9.65376 34.5064 9.48369 34.6765 9.3136 34.6765H5.57178C5.4017 34.6765 5.2316 34.5064 5.40169 34.3363L11.8648 14.9468C11.8648 14.7767 12.0349 14.6067 12.0349 14.2665C12.0349 13.7562 12.205 13.4161 12.205 12.9058C12.205 12.7357 12.3751 12.5657 12.3751 12.7357H17.4776C17.6477 12.7357 17.6477 12.7357 17.8178 12.9058L25.1313 34.5064C25.1313 34.6765 25.1313 34.8465 24.9612 34.8465H20.7092C20.5391 34.8465 20.369 34.6765 20.369 34.6765L18.6682 29.4039ZM12.3751 25.1518H17.4776C16.6272 22.2604 15.7768 19.369 14.9263 16.3075C14.0759 19.5391 13.3956 22.4305 12.3751 25.1518Z" fill="#9999FF"/>
<path d="M27.0023 34.3363V21.7501C27.0023 21.41 27.0023 20.8997 27.0023 20.3895C27.0023 19.8792 27.0023 19.5391 27.0023 19.0288C27.0023 18.5186 27.0023 18.1784 27.0023 18.0083C27.0023 17.8382 27.0023 17.6681 27.1724 17.6681H30.574C31.2543 17.6681 31.2543 18.5186 31.2543 19.0288C31.9347 18.5186 32.615 18.0083 33.2953 17.6681C34.1457 17.328 34.8261 17.1579 35.6765 17.328C36.3568 17.328 36.8671 17.498 37.5474 17.6681C38.2277 17.8382 38.9081 18.3485 39.4183 18.8587C39.9286 19.369 40.2687 20.0493 40.6089 20.7296C40.9491 21.58 41.1192 22.7706 41.1192 24.1313V34.1662C41.1192 34.3363 40.9491 34.5064 40.779 34.5064H36.8671C36.697 34.5064 36.5269 34.3363 36.5269 34.1662V24.4715C36.5269 23.9612 36.5269 23.2809 36.1868 22.7706C35.3363 20.7296 32.615 21.0698 31.2543 22.4305V34.1662C31.2543 34.3363 31.2543 34.5064 30.9142 34.5064H27.0023C27.1723 34.6764 27.0023 34.5064 27.0023 34.3363Z" fill="#9999FF"/>
</svg>
