<svg width="28" height="41" viewBox="0 0 28 41" fill="none" xmlns="http://www.w3.org/2000/svg">
<path fill-rule="evenodd" clip-rule="evenodd" d="M13.6066 20.41C13.6066 16.6682 16.6681 13.6067 20.41 13.6067C24.1518 13.6067 27.2133 16.6682 27.2133 20.41C27.2133 24.1518 24.1518 27.2133 20.41 27.2133C16.6681 27.2133 13.6066 24.1518 13.6066 20.41Z" fill="#1ABCFE"/>
<path fill-rule="evenodd" clip-rule="evenodd" d="M-6.10352e-05 34.0166C-6.10352e-05 30.2748 3.06143 27.2133 6.80326 27.2133H13.6066V34.0166C13.6066 37.7585 10.5451 40.82 6.80326 40.82C3.06143 40.82 -6.10352e-05 37.7585 -6.10352e-05 34.0166Z" fill="#0ACF83"/>
<path fill-rule="evenodd" clip-rule="evenodd" d="M13.6066 0V13.6066H20.41C24.1518 13.6066 27.2133 10.5452 27.2133 6.80332C27.2133 3.0615 24.1518 0 20.41 0H13.6066Z" fill="#FF7262"/>
<path fill-rule="evenodd" clip-rule="evenodd" d="M0 6.80332C0 10.5452 3.0615 13.6066 6.80332 13.6066H13.6066V0H6.80332C3.0615 0 0 3.0615 0 6.80332Z" fill="#F24E1E"/>
<path fill-rule="evenodd" clip-rule="evenodd" d="M-6.10352e-05 20.41C-6.10352e-05 24.1518 3.06143 27.2133 6.80326 27.2133H13.6066V13.6067H6.80326C3.06143 13.6067 -6.10352e-05 16.6682 -6.10352e-05 20.41Z" fill="#A259FF"/>
</svg>
