<svg width="29" height="29" viewBox="0 0 29 29" fill="none" xmlns="http://www.w3.org/2000/svg">
<path d="M1.3002 15.5C0.500195 14.7 0.500195 13.5 1.3002 12.7L13.3002 0.699976C14.1002 -0.100024 15.3002 -0.100024 16.1002 0.699976L28.1002 12.7C28.9002 13.5 28.9002 14.7 28.1002 15.5L16.1002 27.5C15.3002 28.3 14.1002 28.3 13.3002 27.5L1.3002 15.5Z" fill="#EE513B"/>
<path d="M10.9002 3.19995L9.7002 4.39995L12.8002 7.49995C12.7002 7.79995 12.6002 8.09995 12.6002 8.39995C12.6002 9.29995 13.2002 10.0999 14.0002 10.3999V18.0999C13.2002 18.3999 12.6002 19.1999 12.6002 20.0999C12.6002 21.2999 13.6002 22.2 14.7002 22.2C15.9002 22.2 16.8002 21.1999 16.8002 20.0999C16.8002 19.2999 16.3002 18.6 15.6002 18.2V10.3999L18.6002 13.3999C18.5002 13.6999 18.4002 13.9999 18.4002 14.2999C18.4002 15.4999 19.4002 16.3999 20.5002 16.3999C21.7002 16.3999 22.6002 15.3999 22.6002 14.2999C22.6002 13.1999 21.6002 12.2 20.5002 12.2C20.3002 12.2 20.1002 12.1999 19.8002 12.2999L16.6002 9.09995C16.7002 8.89995 16.7002 8.69995 16.7002 8.49995C16.7002 7.29995 15.7002 6.39995 14.6002 6.39995C14.4002 6.39995 14.2002 6.39995 14.0002 6.49995L10.9002 3.19995Z" fill="white"/>
</svg>
