<svg width="48" height="46" viewBox="0 0 48 46" fill="none" xmlns="http://www.w3.org/2000/svg">
<path fill-rule="evenodd" clip-rule="evenodd" d="M23.4714 0C10.5451 0 0 10.5452 0 23.4715C0 33.8465 6.80332 42.6908 16.1579 45.7523C17.3485 45.9224 17.8587 45.2421 17.8587 44.5618C17.8587 44.0515 17.8587 42.1806 17.8587 40.1396C11.9058 41.1601 10.375 38.7789 9.8648 37.4183C9.52463 36.7379 8.50414 34.697 7.48365 34.0166C6.63323 33.5064 5.44265 32.4859 7.48365 32.4859C9.35456 32.4859 10.7152 34.1867 11.0554 34.867C13.0964 38.4388 16.4981 37.4183 17.8587 36.738C18.0288 35.2072 18.7091 34.1867 19.3895 33.5064C14.1169 32.9961 8.67425 30.9551 8.67425 21.9407C8.67425 19.3895 9.52465 17.1784 11.0554 15.6476C10.8853 15.1374 10.0349 12.5861 11.2255 9.35457C11.2255 9.35457 13.2665 8.67424 17.6886 11.7357C19.5595 11.2255 21.6005 10.8853 23.6415 10.8853C25.6825 10.8853 27.7235 11.2255 29.5944 11.7357C34.0166 8.67424 36.0576 9.35457 36.0576 9.35457C37.4183 12.5861 36.5678 14.9673 36.2277 15.6476C37.7584 17.3485 38.6089 19.3895 38.6089 21.9407C38.6089 30.9551 33.1662 32.9961 27.8936 33.5064C28.744 34.1867 29.4244 35.7175 29.4244 37.9285C29.4244 41.1601 29.4244 43.5413 29.4244 44.3917C29.4244 45.072 29.9346 45.7524 31.1252 45.5823C40.4798 42.5208 47.113 33.6764 47.113 23.3014C47.113 10.5451 36.5678 0 23.4714 0Z" fill="black"/>
</svg>
