<svg width="49" height="48" viewBox="0 0 49 48" fill="none" xmlns="http://www.w3.org/2000/svg">
<path d="M0.434937 17.3485C0.434937 11.3956 0.434931 8.33407 1.62551 5.95291C2.64601 3.91191 4.34685 2.21108 6.38784 1.19058C8.76901 -5.17025e-06 11.6604 0 17.7834 0H30.8798C36.8327 0 39.8942 -5.17025e-06 42.2754 1.19058C44.3164 2.21108 46.0172 3.91191 47.0377 5.95291C48.2283 8.33407 48.2283 11.2255 48.2283 17.3485V30.4449C48.2283 36.3978 48.2283 39.4593 47.0377 41.8404C46.0172 43.8814 44.3164 45.5823 42.2754 46.6028C39.8942 47.7934 37.0028 47.7933 30.8798 47.7933H17.7834C11.8305 47.7933 8.76901 47.7934 6.38784 46.6028C4.34685 45.5823 2.64601 43.8814 1.62551 41.8404C0.434931 39.4593 0.434937 36.5679 0.434937 30.4449V17.3485Z" fill="#330000"/>
<path d="M23.5662 30.1047H16.2526L14.7219 34.867C14.7219 35.0371 14.5518 35.2072 14.3817 35.2072H10.6399C10.4698 35.2072 10.2997 35.0371 10.4698 34.867L16.933 15.9878C16.933 15.8177 17.1031 15.6477 17.1031 15.3075C17.2731 14.7972 17.2731 14.4571 17.2731 13.9468C17.2731 13.7767 17.4432 13.7767 17.4432 13.7767H22.5457C22.7158 13.7767 22.7158 13.7767 22.8859 13.9468L30.1994 34.867C30.1994 35.0371 30.1994 35.2072 30.0294 35.2072H25.9474C25.7773 35.2072 25.6072 35.2072 25.6072 35.0371L23.5662 30.1047ZM17.2731 26.0227H22.3756C21.5252 23.1313 20.6748 20.41 19.8244 17.5186C18.974 20.41 18.1235 23.1313 17.2731 26.0227Z" fill="#FF9A00"/>
<path d="M34.1114 17.1784C33.7712 17.1784 33.431 17.1784 33.0909 17.0083C32.7507 16.8382 32.5806 16.6681 32.2404 16.4981C32.0704 16.328 31.9003 15.9878 31.7302 15.6476C31.5601 15.3075 31.5601 14.9673 31.5601 14.6271C31.5601 14.287 31.5601 13.9468 31.7302 13.6066C31.9003 13.2665 32.0704 12.9263 32.2404 12.7562C32.4105 12.5861 32.7507 12.4161 33.0909 12.246C33.431 12.0759 33.7712 12.0759 34.1114 12.0759C34.9618 12.0759 35.472 12.246 35.9823 12.7562C36.1523 12.9263 36.3224 13.2665 36.4925 13.6066C36.6626 13.9468 36.6626 14.287 36.6626 14.6271C36.6626 14.9673 36.6626 15.3075 36.4925 15.6476C36.3224 15.9878 36.1523 16.328 35.9823 16.4981C35.8122 16.6681 35.472 17.0083 35.1318 17.0083C34.7917 17.1784 34.4515 17.1784 34.1114 17.1784ZM31.9003 34.867V19.2194C31.9003 19.0493 32.0704 18.8792 32.2404 18.8792H36.1524C36.3224 18.8792 36.4925 19.0493 36.4925 19.2194V34.867C36.4925 35.0371 36.3224 35.2072 36.1524 35.2072H32.2404C32.0704 35.2072 31.9003 35.0371 31.9003 34.867Z" fill="#FF9A00"/>
</svg>
