<svg width="49" height="48" viewBox="0 0 49 48" fill="none" xmlns="http://www.w3.org/2000/svg">
<path d="M48.1939 0.123543H0.570618V47.7468H48.1939V0.123543Z" fill="#FFCA28"/>
<path d="M29.4847 39.7529L33.0565 37.3717C33.3967 38.2221 35.0975 40.2632 37.3086 40.2632C39.5197 40.2632 40.5401 39.0726 40.5401 38.2221C40.5401 36.0111 38.3291 35.3307 37.1385 34.9906C36.9684 34.9906 36.7983 34.8205 36.7983 34.8205C36.7983 34.8205 36.6282 34.8205 36.6282 34.6504C35.4376 34.1402 31.0155 32.4393 31.0155 27.677C31.0155 22.2343 36.2881 21.7241 37.4786 21.7241C38.3291 21.7241 41.9008 21.8942 43.7717 25.2958L40.37 27.677C39.6897 26.1463 38.3291 25.636 37.6487 25.636C35.7778 25.636 35.4376 26.9967 35.4376 27.677C35.4376 29.3778 37.4786 30.2283 39.1795 30.9086C39.6897 31.0787 40.0299 31.2487 40.37 31.4188C42.241 32.2692 44.9623 33.8 44.9623 38.3922C44.9623 40.7734 43.0914 44.3451 38.159 44.3451C31.5257 44.3451 29.8249 40.4332 29.4847 39.7529Z" fill="#3E3E3E"/>
<path d="M12.4764 40.2632L16.0482 37.882C16.3884 38.7324 17.4088 40.2632 19.1097 40.2632C20.6404 40.2632 21.4908 38.5623 21.4908 37.882V22.2343H25.913V37.882C25.913 40.0931 24.7224 44.3451 19.4499 44.3451C14.8576 44.3451 12.8166 41.4537 12.4764 40.2632Z" fill="#3E3E3E"/>
</svg>
