<svg width="40" height="40" viewBox="0 0 40 40" fill="none" xmlns="http://www.w3.org/2000/svg">
<path d="M2 28.0133H3.5V22.6133L5.5 27.2133C5.8 27.8133 6.09999 28.0133 6.79999 28.0133C7.49999 28.0133 7.80001 27.8133 8.10001 27.2133L10.1 22.7133V28.0133H11.6V22.5133C11.6 22.0133 11.4 21.7133 11 21.6133C10 21.3133 9.29999 21.6133 8.89999 22.3133L6.79999 27.0133L4.79999 22.3133C4.49999 21.6133 3.79998 21.3133 2.69998 21.6133C2.29998 21.7133 2.10001 22.0133 2.10001 22.5133L2 28.0133ZM12.2 23.6133H13.7V26.7133C13.7 26.9133 13.7 27.3133 14.5 27.3133C14.9 27.3133 16.7 27.3133 16.7 27.3133V23.6133H18.2V28.2133C18.2 29.3133 16.8 29.5133 16.2 29.5133H12.4V28.8133H16.1C16.9 28.7133 16.8 28.3133 16.8 28.1133H14.5C13.2 28.1133 12.4 27.5133 12.4 26.9133C12.2 26.7133 12.3 23.6133 12.2 23.6133Z" fill="url(#paint0_linear_12_29)"/>
<path d="M18.8 28.0133H22.5C23 28.0133 23.4 27.9133 23.8 27.7133C24.4 27.4133 24.7 27.0133 24.7 26.5133V25.5133C24.7 24.4133 23.3 24.3133 22.5 24.3133H21C20.4 24.3133 20.3 24.0133 20.3 23.6133V22.8133C20.4 22.5133 20.5 22.1133 21 22.1133C21.6 22.1133 24.7 22.1133 24.7 22.1133V21.4133H21.2C20.6 21.4133 18.8 21.5133 18.8 22.9133V23.8133C18.8 24.4133 19.4 25.0133 20.6 25.1133C20.7 25.1133 20.9 25.1133 21 25.1133C21 25.1133 22.4 25.1133 22.5 25.1133C23.3 25.1133 23.2 25.7133 23.2 25.8133V26.5133C23.2 26.6133 23.2 27.2133 22.5 27.2133C22.4 27.2133 18.8 27.2133 18.8 27.2133V28.0133ZM32.8 26.5133C32.8 27.4133 33.3 27.9133 34.6 28.0133C34.7 28.0133 34.8 28.0133 35 28.0133H38.7V27.3133H35.3C34.5 27.3133 34.3 27.0133 34.3 26.5133V21.4133H32.8V26.5133ZM25.4 26.5133V22.8133C25.4 22.0133 25.8 21.5133 26.9 21.3133H27.4H30H30.4C31.5 21.4133 32 22.0133 32 22.8133V26.5133C32 27.1133 31.8 27.5133 31.3 27.7133L32.4 28.7133H30.7L29.9 28.0133H28.9H27.3C27.1 28.0133 26.8 28.0133 26.5 27.9133C25.8 27.6133 25.4 27.2133 25.4 26.5133ZM26.9 26.5133C27 26.9133 27.3 27.2133 27.8 27.2133H29.2L28.4 26.5133H30.1L30.5 26.9133C30.5 26.9133 30.6 26.8133 30.6 26.5133C30.6 26.2133 30.6 22.8133 30.6 22.8133C30.5 22.5133 30.2 22.1133 29.7 22.1133H27.8C27.2 22.1133 26.9 22.5133 26.9 22.9133V26.5133Z" fill="url(#paint1_linear_12_29)"/>
<path d="M37.2 19.9133C37.1 20.0133 36.7 20.0133 36.6 20.0133C36.4 20.0133 36.2 20.0133 35.9 20.1133C35.7 20.1133 34.9 20.2133 34.9 20.5133C34.9 20.6133 34.9 20.6133 35 20.7133C35.2 21.0133 35.3 21.3133 35.6 21.5133C35.8 21.7133 36 21.8133 36.2 21.9133C36.8 22.3133 37.5 22.5133 38 23.0133C38.1 23.1133 38.2 23.2133 38.3 23.2133C38.3 22.9133 37.9 22.6133 37.7 22.4133C37.4 22.1133 37.1 21.8133 36.8 21.6133C36.5 21.4133 35.7 21.2133 35.7 20.7133C35.7 20.0133 39 21.0133 37.3 19.6133C36.9 19.3133 36.5 18.9133 36.1 18.6133C35.6 18.3133 35.2 18.1133 34.7 17.9133C34.6 17.8133 34.4 17.8133 34.3 17.7133C34.1 17.5133 34 17.2133 33.9 16.9133C33.2 15.6133 32.8 14.2133 31.9 13.0133C31.1 11.9133 30 11.1133 28.8 10.4133C28 9.91332 27.1 10.1133 26.4 9.61332C25.8 9.21332 24.4 8.51331 24 9.51331C23.7 10.1133 24.4 10.8133 24.6 11.1133C24.8 11.3133 25 11.6133 25.1 11.8133C25.4 12.4133 25.6 13.1133 25.9 13.7133C26 13.9133 26.1 14.1133 26.3 14.3133C26.4 14.4133 26.5 14.5133 26.5 14.6133C26.4 14.8133 26.4 15.1133 26.3 15.3133C25.9 16.4133 26.1 17.8133 26.6 18.6133C26.8 18.9133 27.1 19.4133 27.6 19.2133C28 19.0133 27.9 18.5133 28.1 18.0133C28.1 17.9133 28.1 17.8133 28.2 17.8133C28.3 18.1133 28.5 18.3133 28.6 18.6133C29 19.3133 29.8 20.0133 30.5 20.4133C30.5 20.3133 30.4 20.3133 30.4 20.3133C30.2 20.1133 30 19.9133 29.9 19.7133C29.5 19.1133 29.1 18.5133 28.8 17.9133C28.6 17.6133 28.5 17.3133 28.4 17.0133C28.3 16.9133 28.3 16.7133 28.2 16.6133C28.1 16.8133 27.8 17.0133 27.7 17.3133C27.5 17.7133 27.5 18.2133 27.4 18.8133C27.1 18.7133 27 18.4133 26.9 18.1133C26.6 17.4133 26.6 16.3133 26.8 15.5133C26.9 15.3133 27.2 14.6133 27 14.4133C26.9 14.2133 26.7 14.1133 26.6 14.0133C26.5 13.8133 26.3 13.6133 26.2 13.4133C26 12.9133 25.7 12.2133 25.5 11.7133C25.4 11.4133 25.2 11.2133 25 10.9133C24.8 10.6133 24.6 10.5133 24.5 10.1133C24.4 10.0133 24.4 9.81331 24.5 9.71331C24.5 9.61331 24.6 9.61332 24.6 9.61332C24.7 9.51332 25.1 9.61331 25.2 9.71331C25.6 9.81331 25.9 10.0133 26.2 10.2133C26.8 10.6133 27.2 10.5133 27.8 10.6133C28.3 10.8133 28.8 11.0133 29.2 11.3133C31.2 12.6133 32.3 14.7133 33.2 16.8133C33.4 17.3133 33.6 17.7133 33.9 18.1133C34.1 18.4133 34.6 18.4133 34.9 18.5133C35.7 18.8133 36.3 19.2133 37 19.7133C37.1 19.7133 37.2 19.8133 37.2 19.9133Z" fill="url(#paint2_linear_12_29)"/>
<path d="M27.3 11.5133C27.2 11.5133 27.1 11.5133 26.9 11.5133C27.1 11.4133 27.4 12.3133 27.4 12.4133C27.7 12.0133 27.6 11.6133 27.3 11.5133Z" fill="url(#paint3_linear_12_29)"/>
<defs>
<linearGradient id="paint0_linear_12_29" x1="9.45589" y1="20.4892" x2="10.4351" y2="29.4055" gradientUnits="userSpaceOnUse">
<stop stop-color="#058F92"/>
<stop offset="0.5" stop-color="#038489"/>
<stop offset="1" stop-color="#026D71"/>
</linearGradient>
<linearGradient id="paint1_linear_12_29" x1="28.1261" y1="20.8012" x2="28.7966" y2="28.1197" gradientUnits="userSpaceOnUse">
<stop stop-color="#FF9C0F"/>
<stop offset="0.813" stop-color="#D67E00"/>
</linearGradient>
<linearGradient id="paint2_linear_12_29" x1="472.812" y1="-404.363" x2="492.769" y2="-423.372" gradientUnits="userSpaceOnUse">
<stop stop-color="#058F92"/>
<stop offset="0.5" stop-color="#038489"/>
<stop offset="1" stop-color="#026D71"/>
</linearGradient>
<linearGradient id="paint3_linear_12_29" x1="28.8494" y1="13.3279" x2="35.5019" y2="19.6645" gradientUnits="userSpaceOnUse">
<stop stop-color="#058F92"/>
<stop offset="0.5" stop-color="#038489"/>
<stop offset="1" stop-color="#026D71"/>
</linearGradient>
</defs>
</svg>
