<svg width="48" height="48" viewBox="0 0 48 48" fill="none" xmlns="http://www.w3.org/2000/svg">
<path d="M0 17.3485C0 11.3956 -5.17025e-06 8.33407 1.19058 5.95291C2.21107 3.91191 3.91191 2.21108 5.95291 1.19058C8.33407 -5.17025e-06 11.2255 0 17.3485 0H30.4449C36.3978 0 39.4593 -5.17025e-06 41.8404 1.19058C43.8814 2.21108 45.5823 3.91191 46.6028 5.95291C47.7933 8.33407 47.7934 11.2255 47.7934 17.3485V30.4449C47.7934 36.3978 47.7933 39.4593 46.6028 41.8404C45.5823 43.8814 43.8814 45.5823 41.8404 46.6028C39.4593 47.7934 36.5679 47.7933 30.4449 47.7933H17.3485C11.3956 47.7933 8.33407 47.7934 5.95291 46.6028C3.91191 45.5823 2.21107 43.8814 1.19058 41.8404C-5.17025e-06 39.4593 0 36.5679 0 30.4449V17.3485Z" fill="#001E36"/>
<path d="M10.205 35.0371V14.1169C10.205 13.9468 10.205 13.9468 10.375 13.9468C12.416 13.9468 14.457 13.7767 16.498 13.7767C19.8997 13.7767 23.4714 14.9673 24.662 18.369C25.0022 19.2194 25.1723 20.0698 25.1723 21.0903C25.1723 22.7911 24.8321 24.3219 23.9817 25.3424C21.7706 28.574 17.8587 28.4039 14.457 28.4039V34.867C14.457 35.0371 14.287 35.2072 14.1169 35.2072H10.375C10.205 35.3773 10.205 35.2072 10.205 35.0371ZM14.457 17.8587V24.6621C15.8177 24.8321 17.1784 24.8321 18.539 24.3219C20.0698 23.9817 20.7501 22.6211 20.7501 21.0903C20.7501 19.7296 20.0698 18.5391 18.8792 18.1989C17.6886 17.6886 15.9878 17.6886 14.457 17.8587Z" fill="#31A8FF"/>
<path d="M37.5884 23.3014C36.9081 22.9612 36.3978 22.7911 35.7175 22.621C34.8671 22.451 31.4654 21.7706 31.4654 23.4715C31.4654 24.492 32.9961 25.0022 33.6765 25.1723C36.0576 26.0227 38.779 27.5535 38.779 30.4449C38.779 34.1867 35.2072 35.5474 32.1457 35.5474C30.615 35.5474 28.9141 35.3773 27.3834 34.6969C27.2133 34.6969 27.2133 34.5269 27.2133 34.3568V30.785C27.2133 30.615 27.3834 30.4449 27.5535 30.615C28.9141 31.4654 30.615 31.9756 32.3158 31.9756C32.9961 31.9756 34.5269 31.9756 34.5269 30.785C34.5269 29.7645 32.8261 29.2543 32.1457 29.0842C31.1252 28.744 30.2748 28.2338 29.2543 27.5535C28.0637 26.703 27.2133 25.3424 27.2133 23.8116C27.2133 20.41 30.4449 18.7091 33.5064 18.7091C34.8671 18.7091 36.3978 18.8792 37.7585 19.3895C37.9285 19.3895 37.9286 19.5595 37.9286 19.8997V23.1313C37.9286 23.3014 37.7585 23.4715 37.5884 23.3014Z" fill="#31A8FF"/>
</svg>
