<svg width="52" height="45" viewBox="0 0 52 45" fill="none" xmlns="http://www.w3.org/2000/svg">
<path d="M30.1047 22.0935C30.1047 19.7124 28.0637 17.6714 25.5124 17.6714C22.9612 17.6714 20.9202 19.7124 20.9202 22.0935C20.9202 24.4747 22.9612 26.5157 25.5124 26.5157C28.0637 26.5157 30.1047 24.4747 30.1047 22.0935Z" fill="#53C1DE"/>
<path fill-rule="evenodd" clip-rule="evenodd" d="M40.3097 13.9295C41.3302 10.1877 42.5208 3.04423 38.2687 0.663069C34.0166 -1.71809 28.574 2.87415 25.5125 5.59548C22.6211 2.87415 17.0083 -1.7181 12.5861 0.83315C8.33406 3.21431 9.69472 10.1877 10.7152 13.9295C6.8033 14.95 0 17.3312 0 22.0935C0 26.8559 6.8033 29.4071 10.7152 30.5977C9.69472 34.5096 8.50415 41.3129 12.7562 43.6941C17.0083 46.0752 22.6211 41.6531 25.6826 38.9318C28.574 41.6531 34.0166 46.0752 38.2687 43.6941C42.5208 41.3129 41.5003 34.3395 40.4798 30.5977C44.2216 29.5772 51.0249 27.026 51.0249 22.2636C51.0249 17.3312 44.2216 14.95 40.3097 13.9295ZM39.7994 28.3866C39.1191 26.3456 38.2687 24.3046 37.2482 22.0935C38.2687 20.0525 39.1191 17.8415 39.7994 15.9705C42.6908 16.821 48.9839 18.6919 48.9839 22.0935C48.8138 25.6653 42.8609 27.5362 39.7994 28.3866ZM37.2482 41.6531C34.0166 43.3539 29.4244 39.1018 27.2133 37.2309C28.574 35.7002 30.1047 33.9994 31.4654 31.9584C34.0166 31.7883 36.2277 31.4481 38.4388 30.9379C38.949 33.6592 40.3097 39.9523 37.2482 41.6531ZM13.7767 41.6531C10.5452 39.9523 12.0759 33.8293 12.7562 30.9379C14.7972 31.4481 17.1784 31.7883 19.5596 31.9584C20.9202 33.8293 22.451 35.7002 23.9817 37.2309C22.2809 38.9318 17.0083 43.524 13.7767 41.6531ZM2.21106 22.0935C2.21106 18.5218 8.50418 16.6509 11.3956 15.9705C12.0759 18.0115 12.9263 20.0525 13.9468 22.2636C12.9263 24.4747 12.0759 26.5157 11.3956 28.5567C8.50418 27.7063 2.21106 25.6653 2.21106 22.0935ZM13.7767 2.53398C17.0083 0.83315 21.9407 5.08522 23.9817 7.12622C22.451 8.65697 21.0903 10.3578 19.5596 12.3988C17.1784 12.5689 14.7972 12.9091 12.7562 13.4193C12.0759 10.1877 10.5452 4.40489 13.7767 2.53398ZM32.9961 14.6099C34.6969 14.78 36.2277 15.1201 37.5884 15.4603C37.0781 16.821 36.5679 18.1816 35.8875 19.7124C35.0371 17.8415 34.0166 16.1406 32.9961 14.6099ZM25.5125 8.48689C26.533 9.50739 27.5534 10.698 28.5739 12.0586C26.5329 11.8885 24.4919 11.8885 22.621 12.0586C23.4714 10.868 24.492 9.67747 25.5125 8.48689ZM15.1374 19.5423C14.4571 18.0115 13.9468 16.6509 13.4366 15.2902C14.9673 14.95 16.4981 14.78 18.0288 14.4398C17.0083 16.1406 15.9878 17.8415 15.1374 19.5423ZM18.0288 29.7473C16.328 29.5772 14.7972 29.237 13.2665 29.067C13.7767 27.7063 14.287 26.1755 14.9673 24.6448C15.9878 26.3456 17.0083 28.0464 18.0288 29.7473ZM25.5125 35.7002C24.492 34.6797 23.4715 33.4891 22.451 32.1284C24.492 32.1284 26.5329 32.1284 28.5739 32.1284C27.5534 33.4891 26.533 34.6797 25.5125 35.7002ZM36.0576 24.4747C36.738 26.0054 37.2482 27.3661 37.7585 28.8969C36.2277 29.237 34.6969 29.4071 32.9961 29.7473C34.0166 28.0464 35.0371 26.3456 36.0576 24.4747ZM30.1047 29.9174C27.0432 30.0875 23.9817 30.0875 20.7502 29.9174C19.0493 27.3661 17.3485 24.8149 16.1579 22.0935C17.5186 19.3722 19.0493 16.821 20.7502 14.2697C23.8117 14.0996 26.8731 14.0996 30.1047 14.2697C31.8056 16.821 33.3363 19.3722 34.6969 22.0935C33.5064 24.8149 31.9756 27.3661 30.1047 29.9174ZM37.0781 2.53398C40.3097 4.23481 38.7789 10.698 38.0986 13.4193C36.0576 12.9091 33.6764 12.5689 31.2953 12.3988C29.9346 10.5279 28.4039 8.65697 27.0432 7.12622C29.2543 5.08522 34.0166 0.663067 37.0781 2.53398Z" fill="#53C1DE"/>
</svg>
