<svg width="21" height="22" viewBox="0 0 21 22" fill="none" xmlns="http://www.w3.org/2000/svg">
<path d="M13.125 0.15271C12.399 0.15271 11.8125 0.739233 11.8125 1.46521C11.8125 2.19119 12.399 2.77771 13.125 2.77771H16.517L8.26055 11.0383C7.74785 11.551 7.74785 12.3836 8.26055 12.8963C8.77324 13.409 9.60586 13.409 10.1186 12.8963L18.375 4.63572V8.02771C18.375 8.75369 18.9615 9.34021 19.6875 9.34021C20.4135 9.34021 21 8.75369 21 8.02771V1.46521C21 0.739233 20.4135 0.15271 19.6875 0.15271H13.125ZM3.28125 1.46521C1.46836 1.46521 0 2.93357 0 4.74646V17.8715C0 19.6844 1.46836 21.1527 3.28125 21.1527H16.4062C18.2191 21.1527 19.6875 19.6844 19.6875 17.8715V13.2777C19.6875 12.5517 19.101 11.9652 18.375 11.9652C17.649 11.9652 17.0625 12.5517 17.0625 13.2777V17.8715C17.0625 18.2324 16.7672 18.5277 16.4062 18.5277H3.28125C2.92031 18.5277 2.625 18.2324 2.625 17.8715V4.74646C2.625 4.38552 2.92031 4.09021 3.28125 4.09021H7.875C8.60098 4.09021 9.1875 3.50369 9.1875 2.77771C9.1875 2.05173 8.60098 1.46521 7.875 1.46521H3.28125Z" fill="#A1A1A1"/>
</svg>
