<svg width="48" height="48" viewBox="0 0 48 48" fill="none" xmlns="http://www.w3.org/2000/svg">
<path d="M35.5899 1.97953C35.5899 0.448783 33.8891 0.448791 33.2087 0.618874C34.2292 -0.231542 35.4198 -0.0614664 35.9301 0.2787L45.965 5.21111C46.9855 5.72136 47.4957 6.74186 47.4957 7.76236V40.2482C47.4957 41.2687 46.8154 42.2892 45.965 42.7995L36.4403 47.2216C35.76 47.5618 34.3993 48.2421 33.2087 47.2216C34.7395 47.5618 35.4198 46.3712 35.5899 45.6909V1.97953Z" fill="url(#paint0_linear_1_1003)"/>
<path d="M33.3788 0.618881C34.2292 0.448797 35.76 0.618873 35.76 1.97954V13.205L5.31506 36.3363C4.80481 36.6765 3.9544 36.6765 3.61423 36.1662L0.552731 32.7646C0.0424816 32.2543 0.0424816 31.4039 0.552731 30.8937L33.3788 0.618881Z" fill="url(#paint1_linear_1_1003)"/>
<path d="M35.5899 34.8056L5.14502 11.6743C4.63477 11.3341 3.78435 11.3341 3.44419 11.8444L0.382687 15.246C-0.127562 15.7563 -0.127562 16.6067 0.382687 17.1169L33.2087 47.2216C34.7395 47.5618 35.4198 46.3712 35.5899 45.6909V34.8056Z" fill="url(#paint2_linear_1_1003)"/>
<defs>
<linearGradient id="paint0_linear_1_1003" x1="40.3352" y1="0.10828" x2="40.3352" y2="47.7319" gradientUnits="userSpaceOnUse">
<stop stop-color="#32B5F1"/>
<stop offset="1" stop-color="#2B9FED"/>
</linearGradient>
<linearGradient id="paint1_linear_1_1003" x1="35.4963" y1="6.00388" x2="1.51372" y2="34.5284" gradientUnits="userSpaceOnUse">
<stop stop-color="#0F6FB3"/>
<stop offset="0.2706" stop-color="#1279B7"/>
<stop offset="0.4214" stop-color="#1176B5"/>
<stop offset="0.6182" stop-color="#0E69AC"/>
<stop offset="0.8553" stop-color="#0F70AF"/>
<stop offset="1" stop-color="#0F6DAD"/>
</linearGradient>
<linearGradient id="paint2_linear_1_1003" x1="1.66188" y1="13.8995" x2="35.5492" y2="41.9581" gradientUnits="userSpaceOnUse">
<stop stop-color="#1791D2"/>
<stop offset="1" stop-color="#1173C5"/>
</linearGradient>
</defs>
</svg>
