<svg width="30" height="30" viewBox="0 0 30 30" fill="none" xmlns="http://www.w3.org/2000/svg">
<path d="M20.7234 5.87039C20.7234 5.19733 19.9756 5.19733 19.6765 5.27211C20.1252 4.89819 20.6486 4.97298 20.873 5.12254L25.2853 7.2913C25.734 7.51565 25.9583 7.96435 25.9583 8.41306V22.6969C25.9583 23.1456 25.6592 23.5943 25.2853 23.8186L21.0973 25.763C20.7982 25.9126 20.1999 26.2117 19.6765 25.763C20.3495 25.9126 20.6486 25.3891 20.7234 25.0899V5.87039Z" fill="url(#paint0_linear_12_30)"/>
<path d="M19.6764 5.2721C20.0504 5.19732 20.7234 5.2721 20.7234 5.87038V10.8061L7.26224 20.902C7.03789 21.0516 6.66396 21.0516 6.5144 20.8272L5.16826 19.3315C4.94391 19.1072 4.94391 18.7333 5.16826 18.5089L19.6764 5.2721Z" fill="url(#paint1_linear_12_30)"/>
<path d="M20.7234 20.3038L7.26224 10.1331C7.03789 9.98354 6.66396 9.98354 6.5144 10.2079L5.16826 11.7036C4.94391 11.9279 4.94391 12.3019 5.16826 12.5262L19.6016 25.763C20.2747 25.9126 20.5738 25.3891 20.6486 25.09V20.3038H20.7234Z" fill="url(#paint2_linear_12_30)"/>
<defs>
<linearGradient id="paint0_linear_12_30" x1="22.7914" y1="5.06391" x2="22.7914" y2="26.0037" gradientUnits="userSpaceOnUse">
<stop stop-color="#32B5F1"/>
<stop offset="1" stop-color="#2B9FED"/>
</linearGradient>
<linearGradient id="paint1_linear_12_30" x1="20.6351" y1="7.66826" x2="5.69318" y2="20.2103" gradientUnits="userSpaceOnUse">
<stop stop-color="#0F6FB3"/>
<stop offset="0.2706" stop-color="#1279B7"/>
<stop offset="0.4214" stop-color="#1176B5"/>
<stop offset="0.6182" stop-color="#0E69AC"/>
<stop offset="0.8553" stop-color="#0F70AF"/>
<stop offset="1" stop-color="#0F6DAD"/>
</linearGradient>
<linearGradient id="paint2_linear_12_30" x1="5.7444" y1="11.1331" x2="20.6444" y2="23.4702" gradientUnits="userSpaceOnUse">
<stop stop-color="#1791D2"/>
<stop offset="1" stop-color="#1173C5"/>
</linearGradient>
</defs>
</svg>
