<svg width="10" height="10" viewBox="0 0 10 10" fill="none" xmlns="http://www.w3.org/2000/svg">
<rect x="4" y="4" width="2" height="2" fill="#D9D9D9"/>
<rect x="3" y="3" width="1" height="1" fill="#D9D9D9"/>
<rect x="7" y="7" width="1" height="1" transform="rotate(180 7 7)" fill="#D9D9D9"/>
<rect x="9" y="1" width="1" height="1" transform="rotate(-90 9 1)" fill="#D9D9D9"/>
<rect x="1" y="9" width="1" height="1" transform="rotate(90 1 9)" fill="#D9D9D9"/>
<rect x="2" y="2" width="1" height="1" fill="#D9D9D9"/>
<rect x="8" y="8" width="1" height="1" transform="rotate(180 8 8)" fill="#D9D9D9"/>
<rect x="8" y="2" width="1" height="1" transform="rotate(-90 8 2)" fill="#D9D9D9"/>
<rect x="2" y="8" width="1" height="1" transform="rotate(90 2 8)" fill="#D9D9D9"/>
<rect x="1" y="1" width="1" height="1" fill="#D9D9D9"/>
<rect x="9" y="9" width="1" height="1" transform="rotate(180 9 9)" fill="#D9D9D9"/>
<rect x="7" y="3" width="1" height="1" transform="rotate(-90 7 3)" fill="#D9D9D9"/>
<rect x="3" y="7" width="1" height="1" transform="rotate(90 3 7)" fill="#D9D9D9"/>
<rect width="1" height="1" fill="#D9D9D9"/>
<rect x="10" y="10" width="1" height="1" transform="rotate(180 10 10)" fill="#D9D9D9"/>
<rect x="6" y="4" width="1" height="1" transform="rotate(-90 6 4)" fill="#D9D9D9"/>
<rect x="4" y="6" width="1" height="1" transform="rotate(90 4 6)" fill="#D9D9D9"/>
</svg>
