<svg width="49" height="48" viewBox="0 0 49 48" fill="none" xmlns="http://www.w3.org/2000/svg">
<path d="M0.304688 17.3485C0.304688 11.3956 0.304708 8.33407 1.49529 5.95291C2.51579 3.91191 4.2166 2.21108 6.2576 1.19058C8.63876 -5.17025e-06 11.5302 0 17.6532 0H30.7495C36.7025 0 39.764 -5.17025e-06 42.1451 1.19058C44.1861 2.21108 45.8869 3.91191 46.9074 5.95291C48.098 8.33407 48.098 11.2255 48.098 17.3485V30.4449C48.098 36.3978 48.098 39.4593 46.9074 41.8404C45.8869 43.8814 44.1861 45.5823 42.1451 46.6028C39.764 47.7934 36.8725 47.7933 30.7495 47.7933H17.6532C11.7003 47.7933 8.63876 47.7934 6.2576 46.6028C4.2166 45.5823 2.51579 43.8814 1.49529 41.8404C0.304708 39.4593 0.304688 36.5679 0.304688 30.4449V17.3485Z" fill="#470137"/>
<path d="M25.1368 14.1169L19.1839 24.1518L25.477 34.867C25.647 35.0371 25.477 35.2072 25.3069 35.2072H20.7147C20.3745 35.2072 20.2044 35.2072 20.0343 35.0371C19.6942 34.1867 19.1839 33.3363 18.6736 32.4859C18.1634 31.6355 17.8232 30.785 17.313 29.9346C16.8027 29.0842 16.2925 28.2338 15.9524 27.2133C15.4421 28.0637 15.1019 28.9141 14.5917 29.7645C14.0814 30.615 13.7413 31.4654 13.231 32.3158C12.7208 33.1662 12.3806 34.0166 11.8703 34.867C11.7002 35.0371 11.7003 35.0371 11.3601 35.0371H6.93792C6.76783 35.0371 6.76782 34.867 6.76782 34.697L12.8908 24.3219L6.93792 13.9468C6.76783 13.7767 6.93793 13.6066 7.10801 13.6066H11.5302C11.7003 13.6066 11.8703 13.6066 12.0404 13.7767C12.3806 14.6271 12.8909 15.4776 13.4011 16.328C13.9114 17.1784 14.4216 18.0288 14.7617 18.8792C15.272 19.7296 15.7822 20.5801 16.1224 21.4305C16.6326 20.5801 16.9728 19.7296 17.4831 18.8792C17.9933 18.0288 18.3335 17.1784 18.8437 16.328C19.354 15.4776 19.6942 14.6271 20.2044 13.7767C20.2044 13.6066 20.3745 13.4366 20.5446 13.4366H24.7966C25.1368 13.7767 25.3069 14.1169 25.1368 14.1169Z" fill="#FF61F6"/>
<path d="M34.3212 35.7175C31.4298 35.7175 28.5384 34.5269 27.0077 31.9756C26.3274 30.785 25.9872 29.2543 25.9872 27.3834C25.9872 25.8526 26.3274 24.3219 27.0077 23.1313C28.8786 19.7296 32.6204 18.5391 36.1922 18.8792V12.4161C36.1922 12.246 36.1922 12.246 36.3623 12.246H40.4442C40.6143 12.246 40.6143 12.246 40.6143 12.4161V31.8055C40.6143 32.656 40.6143 33.3363 40.7844 34.1867C40.7844 34.3568 40.7844 34.5269 40.6143 34.5269C38.7434 35.2072 36.5323 35.5474 34.3212 35.7175ZM36.3623 31.6355V22.621C33.4708 21.7706 30.5794 23.9817 30.5794 27.0432C30.5794 30.2748 33.3008 32.4859 36.3623 31.6355Z" fill="#FF61F6"/>
</svg>
