<svg width="48" height="38" viewBox="0 0 48 38" fill="none" xmlns="http://www.w3.org/2000/svg">
<path fill-rule="evenodd" clip-rule="evenodd" d="M7.31355 25.8526L4.76231 26.703L4.59216 34.0166L13.2665 30.9551C10.3751 29.9346 8.16397 28.2338 7.31355 25.8526Z" fill="#FDBD39"/>
<path fill-rule="evenodd" clip-rule="evenodd" d="M8.6742 18.0288L0 21.0903L4.93235 26.533L7.48359 25.6825C6.4631 23.4715 6.97337 20.7501 8.6742 18.0288Z" fill="#F69833"/>
<path fill-rule="evenodd" clip-rule="evenodd" d="M23.1312 7.65374C12.0758 11.5656 5.10243 19.7296 7.31351 25.8526L47.1129 11.5657C44.9018 5.44266 34.1866 3.57174 23.1312 7.65374Z" fill="#FECF33"/>
<path fill-rule="evenodd" clip-rule="evenodd" d="M31.2953 29.7645C42.3507 25.8526 49.4941 17.6886 47.113 11.5657L7.3136 25.8526C9.52468 31.9756 20.2399 33.6765 31.2953 29.7645Z" fill="#EE6723"/>
<path fill-rule="evenodd" clip-rule="evenodd" d="M47.113 11.5657L7.3136 25.8526C8.16401 27.8936 11.0554 29.0842 15.3075 29.0842C19.3895 29.0842 24.662 28.0637 30.1047 26.1928C40.99 22.1108 48.6437 15.6477 47.113 11.5657Z" fill="#F69833"/>
<path fill-rule="evenodd" clip-rule="evenodd" d="M39.2891 8.33408C35.2071 8.33408 29.9345 9.35457 24.4918 11.2255C13.4364 15.1374 5.78273 21.6006 7.31348 25.6825L47.1129 11.3956C46.4325 9.35457 43.3711 8.33408 39.2891 8.33408Z" fill="#FDBD39"/>
<path fill-rule="evenodd" clip-rule="evenodd" d="M37.0781 34.3568C35.8875 34.3568 34.1867 33.3363 31.9756 31.2953C29.2543 28.9141 26.3629 25.3424 23.4715 21.2604C20.58 17.1784 18.1988 13.2665 16.8382 9.86483C15.3074 6.29308 15.1374 4.082 16.1579 3.40166C16.328 3.23158 16.6681 3.23158 17.0083 3.23158C17.8587 3.23158 19.7296 3.91191 22.9612 6.97341V7.14349C22.9612 7.31357 22.9612 7.65374 22.9612 7.82382V8.33408L22.621 7.9939C19.2194 4.59224 17.6886 4.25208 17.1784 4.25208C17.0083 4.25208 16.8382 4.25208 16.8382 4.25208C16.3279 4.59224 16.328 6.12299 17.8587 9.69473C19.2194 12.9263 21.6005 16.8382 24.3219 20.9202C27.2133 24.8321 30.1046 28.4039 32.6559 30.785C35.5473 33.3363 36.7379 33.6765 37.0781 33.6765C37.2482 33.6765 37.4183 33.6764 37.4183 33.5064C37.9285 33.1662 37.9285 31.4654 36.2277 27.7236V27.5535L36.3977 27.3834C36.5678 27.2133 36.7379 27.2133 36.908 27.0432L37.0781 26.8731L37.2481 27.0432C38.4387 29.7645 39.4592 32.9961 38.0986 34.0166C37.5883 34.3568 37.4183 34.3568 37.0781 34.3568Z" fill="#EE6723"/>
<path fill-rule="evenodd" clip-rule="evenodd" d="M31.6355 29.5945V29.7645C31.2953 33.1662 30.615 37.2482 28.744 37.4183C28.744 37.4183 28.7441 37.4183 28.574 37.4183C27.2133 37.4183 26.0227 35.5474 25.0022 31.9756C23.9817 28.574 23.1313 23.9817 22.6211 19.0493C22.1108 14.1169 22.1108 9.52465 22.6211 5.95291C23.1313 2.041 23.9817 0 25.3424 0C25.3424 0 25.3424 0 25.5125 0C26.533 0 27.8936 1.0205 29.2543 5.95291L28.2338 6.12299C27.7236 4.42216 27.2133 3.23158 26.703 2.21109C26.1928 1.36067 25.6825 0.850415 25.3424 0.850415C24.8321 0.850415 23.9818 2.21108 23.4715 5.95291C22.9613 9.35457 22.9613 13.9468 23.4715 18.8792C23.9818 23.6415 24.6621 28.2338 25.6826 31.6355C26.1928 33.1662 26.7031 34.3568 27.2134 35.2072C27.7236 36.0576 28.0637 36.3978 28.4039 36.3978C28.9141 36.3978 29.9346 34.867 30.4449 29.7645L31.6355 29.5945Z" fill="#EE6723"/>
</svg>
